<svg width="2166" height="1068" viewBox="0 0 2166 1068" fill="none" xmlns="http://www.w3.org/2000/svg">
<rect x="533.999" width="755.188" height="755.188" transform="rotate(45 533.999 0)" fill="#29A6DC"/>
<path d="M365.04 561.434V499.079C365.04 494.594 364.307 490.757 362.841 487.566C361.375 484.288 359.089 481.744 355.984 479.933C352.966 478.122 349.042 477.216 344.212 477.216C340.072 477.216 336.493 477.949 333.475 479.415C330.456 480.795 328.127 482.822 326.489 485.496C324.85 488.083 324.031 491.145 324.031 494.681H286.773C286.773 488.73 288.153 483.081 290.913 477.734C293.672 472.386 297.683 467.686 302.944 463.633C308.205 459.493 314.458 456.259 321.702 453.93C329.033 451.601 337.226 450.437 346.282 450.437C357.149 450.437 366.808 452.248 375.26 455.87C383.712 459.493 390.353 464.926 395.183 472.171C400.099 479.415 402.557 488.471 402.557 499.338V559.235C402.557 566.911 403.031 573.207 403.98 578.123C404.928 582.952 406.308 587.178 408.12 590.801V593H370.474C368.662 589.205 367.283 584.462 366.334 578.77C365.471 572.991 365.04 567.213 365.04 561.434ZM369.956 507.747L370.215 528.834H349.387C344.471 528.834 340.202 529.394 336.579 530.516C332.957 531.637 329.982 533.232 327.653 535.302C325.324 537.286 323.599 539.614 322.478 542.288C321.443 544.962 320.926 547.894 320.926 551.085C320.926 554.276 321.659 557.165 323.125 559.753C324.591 562.254 326.704 564.237 329.464 565.703C332.224 567.083 335.458 567.773 339.167 567.773C344.773 567.773 349.645 566.652 353.785 564.41C357.925 562.167 361.116 559.408 363.358 556.13C365.687 552.853 366.894 549.748 366.981 546.816L376.813 562.599C375.433 566.135 373.535 569.8 371.12 573.595C368.792 577.39 365.816 580.969 362.194 584.332C358.572 587.61 354.216 590.326 349.128 592.483C344.04 594.552 338.002 595.587 331.017 595.587C322.133 595.587 314.069 593.819 306.825 590.283C299.666 586.661 293.974 581.702 289.748 575.406C285.609 569.024 283.539 561.779 283.539 553.672C283.539 546.341 284.919 539.83 287.678 534.138C290.438 528.446 294.492 523.659 299.839 519.778C305.272 515.811 312.043 512.835 320.15 510.852C328.257 508.782 337.657 507.747 348.352 507.747H369.956ZM489.104 566.48C493.675 566.48 497.728 565.617 501.264 563.892C504.8 562.081 507.56 559.58 509.544 556.389C511.614 553.112 512.692 549.274 512.778 544.875H547.836C547.75 554.707 545.12 563.461 539.945 571.137C534.77 578.726 527.828 584.72 519.117 589.119C510.406 593.431 500.66 595.587 489.88 595.587C479.013 595.587 469.526 593.776 461.419 590.154C453.398 586.532 446.714 581.529 441.367 575.147C436.02 568.679 432.009 561.176 429.336 552.637C426.662 544.013 425.325 534.785 425.325 524.953V521.201C425.325 511.283 426.662 502.055 429.336 493.516C432.009 484.892 436.02 477.389 441.367 471.006C446.714 464.538 453.398 459.493 461.419 455.87C469.44 452.248 478.84 450.437 489.621 450.437C501.092 450.437 511.139 452.636 519.764 457.035C528.474 461.433 535.288 467.729 540.204 475.922C545.206 484.029 547.75 493.646 547.836 504.771H512.778C512.692 500.114 511.7 495.888 509.802 492.093C507.991 488.299 505.318 485.28 501.782 483.038C498.332 480.709 494.063 479.545 488.974 479.545C483.541 479.545 479.099 480.709 475.649 483.038C472.2 485.28 469.526 488.385 467.629 492.352C465.731 496.233 464.394 500.675 463.618 505.677C462.928 510.593 462.583 515.768 462.583 521.201V524.953C462.583 530.386 462.928 535.604 463.618 540.606C464.308 545.608 465.602 550.05 467.499 553.931C469.483 557.812 472.2 560.874 475.649 563.116C479.099 565.358 483.584 566.48 489.104 566.48ZM606.699 482.003V593H569.311V453.024H604.37L606.699 482.003ZM601.524 518.096H591.175C591.175 508.351 592.339 499.381 594.667 491.188C597.082 482.908 600.575 475.75 605.146 469.713C609.803 463.589 615.539 458.846 622.352 455.482C629.165 452.119 637.057 450.437 646.026 450.437C652.236 450.437 657.928 451.386 663.103 453.283C668.278 455.094 672.719 457.983 676.428 461.951C680.222 465.832 683.155 470.92 685.225 477.216C687.295 483.426 688.329 490.886 688.329 499.597V593H651.072V503.736C651.072 497.354 650.209 492.438 648.484 488.989C646.759 485.539 644.301 483.124 641.11 481.744C638.006 480.364 634.254 479.674 629.855 479.674C625.026 479.674 620.8 480.666 617.177 482.65C613.641 484.633 610.709 487.393 608.38 490.929C606.052 494.379 604.327 498.432 603.206 503.09C602.085 507.747 601.524 512.749 601.524 518.096ZM684.837 513.827L671.512 515.509C671.512 506.367 672.633 497.872 674.875 490.023C677.204 482.175 680.611 475.276 685.095 469.325C689.666 463.374 695.315 458.76 702.042 455.482C708.77 452.119 716.532 450.437 725.329 450.437C732.056 450.437 738.179 451.429 743.699 453.412C749.218 455.31 753.919 458.372 757.8 462.598C761.767 466.737 764.786 472.171 766.856 478.898C769.012 485.625 770.09 493.861 770.09 503.607V593H732.703V503.607C732.703 497.139 731.84 492.223 730.115 488.859C728.477 485.409 726.062 483.038 722.871 481.744C719.766 480.364 716.057 479.674 711.745 479.674C707.26 479.674 703.336 480.58 699.973 482.391C696.609 484.116 693.806 486.531 691.564 489.635C689.321 492.74 687.64 496.362 686.518 500.502C685.397 504.556 684.837 508.997 684.837 513.827Z" fill="white"/>
<path d="M382.117 664.668H399.036C398.697 670.214 397.169 675.137 394.453 679.438C391.774 683.738 388.021 687.096 383.192 689.51C378.401 691.925 372.629 693.132 365.876 693.132C360.595 693.132 355.86 692.226 351.673 690.416C347.485 688.567 343.901 685.926 340.921 682.493C337.978 679.06 335.734 674.911 334.187 670.044C332.64 665.178 331.867 659.726 331.867 653.69V647.975C331.867 641.939 332.659 636.488 334.244 631.621C335.866 626.717 338.167 622.548 341.147 619.115C344.165 615.682 347.768 613.042 351.956 611.193C356.143 609.345 360.821 608.42 365.989 608.42C372.855 608.42 378.646 609.665 383.362 612.155C388.115 614.645 391.793 618.078 394.396 622.454C397.037 626.83 398.621 631.81 399.149 637.393H382.173C381.985 634.073 381.324 631.263 380.193 628.962C379.061 626.623 377.344 624.868 375.043 623.699C372.78 622.492 369.762 621.888 365.989 621.888C363.16 621.888 360.689 622.416 358.576 623.473C356.464 624.529 354.691 626.132 353.257 628.283C351.823 630.433 350.748 633.149 350.032 636.431C349.352 639.675 349.013 643.486 349.013 647.862V653.69C349.013 657.953 349.334 661.707 349.975 664.951C350.616 668.158 351.597 670.874 352.917 673.1C354.276 675.288 356.011 676.948 358.124 678.079C360.274 679.174 362.858 679.721 365.876 679.721C369.422 679.721 372.346 679.155 374.647 678.023C376.948 676.891 378.703 675.212 379.91 672.987C381.155 670.761 381.89 667.988 382.117 664.668ZM425.067 605.082V692H408.769V605.082H425.067ZM422.746 659.236H418.276C418.314 654.973 418.88 651.05 419.974 647.466C421.068 643.844 422.633 640.713 424.67 638.072C426.708 635.394 429.141 633.319 431.97 631.848C434.837 630.376 438.006 629.641 441.477 629.641C444.495 629.641 447.23 630.074 449.682 630.942C452.172 631.772 454.303 633.13 456.076 635.016C457.887 636.865 459.283 639.298 460.264 642.316C461.245 645.334 461.735 648.994 461.735 653.294V692H445.325V653.181C445.325 650.465 444.929 648.333 444.136 646.787C443.382 645.202 442.269 644.089 440.798 643.448C439.364 642.769 437.591 642.429 435.479 642.429C433.14 642.429 431.14 642.863 429.48 643.731C427.858 644.599 426.557 645.806 425.576 647.352C424.595 648.861 423.878 650.635 423.425 652.672C422.973 654.709 422.746 656.897 422.746 659.236ZM507.175 678.193V650.917C507.175 648.956 506.854 647.277 506.213 645.881C505.572 644.448 504.572 643.335 503.214 642.543C501.893 641.75 500.177 641.354 498.064 641.354C496.254 641.354 494.688 641.675 493.368 642.316C492.047 642.92 491.029 643.806 490.312 644.976C489.595 646.108 489.237 647.447 489.237 648.994H472.94C472.94 646.391 473.543 643.92 474.75 641.581C475.958 639.242 477.712 637.186 480.013 635.413C482.314 633.602 485.049 632.187 488.218 631.168C491.425 630.15 495.009 629.641 498.97 629.641C503.723 629.641 507.948 630.433 511.645 632.017C515.342 633.602 518.247 635.978 520.36 639.147C522.51 642.316 523.585 646.277 523.585 651.031V677.231C523.585 680.588 523.793 683.342 524.208 685.492C524.623 687.605 525.226 689.454 526.019 691.038V692H509.552C508.759 690.34 508.156 688.265 507.741 685.775C507.364 683.248 507.175 680.72 507.175 678.193ZM509.325 654.709L509.438 663.933H500.328C498.178 663.933 496.31 664.178 494.726 664.668C493.141 665.159 491.84 665.857 490.821 666.762C489.803 667.63 489.048 668.648 488.558 669.818C488.105 670.987 487.879 672.27 487.879 673.666C487.879 675.061 488.199 676.325 488.841 677.457C489.482 678.551 490.406 679.419 491.613 680.06C492.821 680.664 494.235 680.965 495.857 680.965C498.31 680.965 500.441 680.475 502.252 679.494C504.063 678.513 505.458 677.306 506.439 675.873C507.458 674.439 507.986 673.081 508.024 671.798L512.324 678.702C511.721 680.249 510.891 681.852 509.835 683.512C508.816 685.172 507.514 686.737 505.93 688.209C504.346 689.642 502.44 690.831 500.215 691.774C497.989 692.679 495.348 693.132 492.292 693.132C488.407 693.132 484.879 692.358 481.711 690.812C478.579 689.227 476.09 687.058 474.241 684.304C472.43 681.512 471.525 678.344 471.525 674.797C471.525 671.591 472.128 668.743 473.336 666.253C474.543 663.763 476.316 661.669 478.655 659.971C481.032 658.236 483.993 656.935 487.539 656.067C491.085 655.162 495.197 654.709 499.875 654.709H509.325ZM552.445 642.543V715.54H536.148V630.772H551.257L552.445 642.543ZM591.207 660.707V661.895C591.207 666.347 590.679 670.478 589.623 674.288C588.604 678.098 587.095 681.418 585.096 684.248C583.096 687.039 580.607 689.227 577.626 690.812C574.684 692.358 571.289 693.132 567.441 693.132C563.706 693.132 560.461 692.377 557.708 690.868C554.954 689.359 552.634 687.247 550.747 684.53C548.899 681.777 547.409 678.589 546.277 674.967C545.145 671.346 544.277 667.46 543.674 663.31V660.198C544.277 655.746 545.145 651.672 546.277 647.975C547.409 644.24 548.899 641.015 550.747 638.298C552.634 635.545 554.935 633.413 557.651 631.904C560.405 630.395 563.63 629.641 567.327 629.641C571.213 629.641 574.627 630.376 577.57 631.848C580.55 633.319 583.04 635.431 585.039 638.185C587.076 640.939 588.604 644.221 589.623 648.032C590.679 651.842 591.207 656.067 591.207 660.707ZM574.854 661.895V660.707C574.854 658.104 574.627 655.709 574.174 653.521C573.76 651.295 573.08 649.352 572.137 647.692C571.232 646.032 570.025 644.749 568.516 643.844C567.044 642.901 565.253 642.429 563.14 642.429C560.914 642.429 559.009 642.788 557.425 643.505C555.878 644.221 554.614 645.259 553.633 646.617C552.652 647.975 551.917 649.597 551.426 651.483C550.936 653.37 550.634 655.501 550.521 657.878V665.743C550.71 668.535 551.238 671.044 552.105 673.27C552.973 675.458 554.312 677.193 556.123 678.476C557.934 679.758 560.311 680.4 563.253 680.4C565.403 680.4 567.214 679.928 568.686 678.985C570.157 678.004 571.345 676.665 572.251 674.967C573.194 673.27 573.854 671.308 574.231 669.082C574.646 666.856 574.854 664.461 574.854 661.895ZM631.328 630.772V642.316H595.678V630.772H631.328ZM604.505 615.664H620.803V673.552C620.803 675.326 621.029 676.684 621.482 677.627C621.972 678.57 622.689 679.23 623.632 679.607C624.575 679.947 625.763 680.117 627.197 680.117C628.216 680.117 629.121 680.079 629.913 680.003C630.743 679.89 631.441 679.777 632.007 679.664L632.063 691.66C630.668 692.113 629.159 692.472 627.536 692.736C625.914 693 624.122 693.132 622.161 693.132C618.577 693.132 615.446 692.547 612.767 691.378C610.126 690.17 608.089 688.246 606.656 685.606C605.222 682.965 604.505 679.494 604.505 675.194V615.664ZM668.789 693.132C664.035 693.132 659.772 692.377 656 690.868C652.227 689.322 649.021 687.19 646.38 684.474C643.777 681.758 641.778 678.608 640.382 675.024C638.986 671.402 638.288 667.554 638.288 663.48V661.216C638.288 656.576 638.948 652.332 640.269 648.484C641.589 644.636 643.475 641.298 645.927 638.468C648.417 635.639 651.435 633.47 654.981 631.961C658.528 630.414 662.526 629.641 666.978 629.641C671.316 629.641 675.164 630.357 678.522 631.791C681.879 633.224 684.69 635.262 686.953 637.902C689.255 640.543 690.99 643.712 692.159 647.409C693.329 651.068 693.914 655.143 693.914 659.632V666.422H645.248V655.558H677.899V654.313C677.899 652.049 677.484 650.031 676.654 648.258C675.862 646.447 674.655 645.014 673.033 643.957C671.411 642.901 669.336 642.373 666.808 642.373C664.658 642.373 662.809 642.844 661.263 643.787C659.716 644.731 658.452 646.051 657.471 647.749C656.528 649.446 655.811 651.446 655.321 653.747C654.868 656.01 654.642 658.5 654.642 661.216V663.48C654.642 665.932 654.981 668.196 655.66 670.27C656.377 672.345 657.377 674.137 658.66 675.646C659.98 677.155 661.564 678.325 663.413 679.155C665.299 679.985 667.431 680.4 669.807 680.4C672.75 680.4 675.485 679.834 678.012 678.702C680.578 677.532 682.785 675.778 684.633 673.439L692.555 682.041C691.273 683.889 689.519 685.662 687.293 687.36C685.105 689.057 682.464 690.453 679.371 691.547C676.277 692.604 672.75 693.132 668.789 693.132ZM719.491 644.127V692H703.194V630.772H718.529L719.491 644.127ZM737.939 630.376L737.656 645.485C736.863 645.372 735.901 645.278 734.77 645.202C733.676 645.089 732.676 645.032 731.771 645.032C729.469 645.032 727.47 645.334 725.772 645.938C724.112 646.504 722.717 647.352 721.585 648.484C720.491 649.616 719.661 650.993 719.095 652.615C718.567 654.237 718.265 656.086 718.19 658.161L714.908 657.142C714.908 653.181 715.304 649.541 716.096 646.221C716.888 642.863 718.039 639.94 719.548 637.45C721.094 634.96 722.981 633.036 725.206 631.678C727.432 630.32 729.979 629.641 732.846 629.641C733.751 629.641 734.675 629.716 735.619 629.867C736.562 629.98 737.335 630.15 737.939 630.376Z" fill="white"/>
<path d="M534 215C708.223 215 849 358.076 849 534C849 709.924 708.223 853 534 853C359.778 853 219 709.924 219 534C219 358.076 359.778 215 534 215Z" stroke="white" stroke-width="40"/>
<path fill-rule="evenodd" clip-rule="evenodd" d="M1052 0L1448 396H1319L1052 128.999L894.498 286.499L829.998 222L1052 0ZM1255 736H1384L1052 1068L828.999 844.999L893.499 780.5L1052 938.999L1255 736Z" fill="#29A6DC"/>
<path d="M1423.15 630.752V515.688C1423.15 507.413 1421.8 500.331 1419.09 494.442C1416.39 488.395 1412.17 483.7 1406.44 480.358C1400.87 477.015 1393.63 475.344 1384.72 475.344C1377.08 475.344 1370.47 476.697 1364.9 479.403C1359.33 481.949 1355.03 485.689 1352.01 490.623C1348.99 495.397 1347.47 501.047 1347.47 507.572H1278.72C1278.72 496.591 1281.27 486.166 1286.36 476.299C1291.45 466.432 1298.86 457.759 1308.56 450.279C1318.27 442.64 1329.81 436.672 1343.18 432.375C1356.71 428.078 1371.82 425.929 1388.53 425.929C1408.59 425.929 1426.41 429.271 1442.01 435.955C1457.6 442.64 1469.86 452.666 1478.77 466.034C1487.84 479.403 1492.38 496.113 1492.38 516.166V626.694C1492.38 640.858 1493.25 652.476 1495 661.547C1496.76 670.459 1499.3 678.258 1502.64 684.942V689H1433.18C1429.83 681.998 1427.29 673.244 1425.54 662.741C1423.95 652.078 1423.15 641.415 1423.15 630.752ZM1432.22 531.683L1432.7 570.594H1394.26C1385.19 570.594 1377.32 571.629 1370.63 573.698C1363.95 575.767 1358.46 578.711 1354.16 582.53C1349.86 586.191 1346.68 590.488 1344.61 595.421C1342.7 600.355 1341.75 605.766 1341.75 611.654C1341.75 617.543 1343.1 622.874 1345.8 627.649C1348.51 632.264 1352.41 635.924 1357.5 638.63C1362.59 641.176 1368.56 642.449 1375.41 642.449C1385.75 642.449 1394.74 640.38 1402.38 636.243C1410.02 632.105 1415.91 627.012 1420.05 620.964C1424.34 614.917 1426.57 609.188 1426.73 603.776L1444.87 632.9C1442.33 639.426 1438.83 646.189 1434.37 653.192C1430.07 660.194 1424.58 666.799 1417.9 673.006C1411.21 679.053 1403.18 684.066 1393.79 688.045C1384.4 691.865 1373.26 693.774 1360.37 693.774C1343.97 693.774 1329.09 690.512 1315.72 683.987C1302.52 677.303 1292.01 668.152 1284.21 656.534C1276.57 644.757 1272.76 631.389 1272.76 616.429C1272.76 602.901 1275.3 590.886 1280.39 580.382C1285.49 569.878 1292.97 561.045 1302.83 553.884C1312.86 546.563 1325.35 541.072 1340.31 537.412C1355.27 533.592 1372.62 531.683 1392.35 531.683H1432.22ZM1549.19 430.704H1618.18V704.517C1618.18 723.615 1614.68 739.768 1607.68 752.977C1600.68 766.187 1590.57 776.213 1577.36 783.056C1564.15 789.9 1548.16 793.321 1529.38 793.321C1523.49 793.321 1517.76 793.003 1512.19 792.366C1506.46 791.73 1500.57 790.695 1494.53 789.263L1494.77 736.506C1498.59 737.142 1502.33 737.62 1505.99 737.938C1509.49 738.415 1513.07 738.654 1516.73 738.654C1523.89 738.654 1529.86 737.46 1534.63 735.073C1539.41 732.686 1542.99 728.946 1545.37 723.853C1547.92 718.92 1549.19 712.474 1549.19 704.517V430.704ZM1543.7 363.384C1543.7 353.358 1547.21 345.082 1554.21 338.557C1561.37 332.032 1570.76 328.77 1582.38 328.77C1594.15 328.77 1603.54 332.032 1610.55 338.557C1617.55 345.082 1621.05 353.358 1621.05 363.384C1621.05 373.41 1617.55 381.686 1610.55 388.211C1603.54 394.736 1594.15 397.999 1582.38 397.999C1570.76 397.999 1561.37 394.736 1554.21 388.211C1547.21 381.686 1543.7 373.41 1543.7 363.384ZM1779.56 640.062C1788 640.062 1795.48 638.471 1802 635.288C1808.53 631.946 1813.62 627.33 1817.28 621.442C1821.1 615.394 1823.09 608.312 1823.25 600.196H1887.94C1887.78 618.338 1882.93 634.492 1873.38 648.656C1863.83 662.661 1851.02 673.722 1834.94 681.838C1818.87 689.796 1800.89 693.774 1780.99 693.774C1760.94 693.774 1743.43 690.432 1728.47 683.748C1713.67 677.064 1701.34 667.833 1691.47 656.056C1681.61 644.12 1674.2 630.275 1669.27 614.519C1664.34 598.604 1661.87 581.575 1661.87 563.433V556.51C1661.87 538.208 1664.34 521.179 1669.27 505.423C1674.2 489.509 1681.61 475.663 1691.47 463.886C1701.34 451.95 1713.67 442.64 1728.47 435.955C1743.27 429.271 1760.62 425.929 1780.52 425.929C1801.68 425.929 1820.22 429.987 1836.14 438.104C1852.21 446.22 1864.78 457.838 1873.86 472.957C1883.09 487.917 1887.78 505.662 1887.94 526.192H1823.25C1823.09 517.598 1821.26 509.8 1817.76 502.797C1814.41 495.795 1809.48 490.225 1802.96 486.087C1796.59 481.79 1788.71 479.641 1779.32 479.641C1769.3 479.641 1761.1 481.79 1754.73 486.087C1748.37 490.225 1743.43 495.954 1739.93 503.275C1736.43 510.436 1733.96 518.633 1732.53 527.863C1731.26 536.935 1730.62 546.483 1730.62 556.51V563.433C1730.62 573.459 1731.26 583.087 1732.53 592.318C1733.81 601.548 1736.19 609.745 1739.69 616.906C1743.35 624.068 1748.37 629.718 1754.73 633.855C1761.1 637.993 1769.37 640.062 1779.56 640.062ZM2046.69 693.774C2026.64 693.774 2008.65 690.591 1992.74 684.226C1976.82 677.701 1963.3 668.709 1952.16 657.25C1941.17 645.791 1932.74 632.503 1926.85 617.384C1920.96 602.105 1918.02 585.872 1918.02 568.684V559.136C1918.02 539.56 1920.8 521.656 1926.37 505.423C1931.94 489.19 1939.9 475.106 1950.25 463.17C1960.75 451.234 1973.48 442.083 1988.44 435.717C2003.4 429.192 2020.27 425.929 2039.05 425.929C2057.35 425.929 2073.59 428.953 2087.75 435.001C2101.91 441.048 2113.77 449.642 2123.32 460.782C2133.03 471.923 2140.35 485.291 2145.28 500.888C2150.22 516.325 2152.68 533.513 2152.68 552.451V581.098H1947.38V535.263H2085.12V530.012C2085.12 520.463 2083.37 511.948 2079.87 504.468C2076.53 496.829 2071.44 490.782 2064.59 486.326C2057.75 481.869 2049 479.641 2038.33 479.641C2029.26 479.641 2021.46 481.631 2014.94 485.609C2008.41 489.588 2003.08 495.158 1998.95 502.32C1994.97 509.482 1991.94 517.916 1989.87 527.624C1987.96 537.173 1987.01 547.677 1987.01 559.136V568.684C1987.01 579.029 1988.44 588.578 1991.31 597.331C1994.33 606.084 1998.55 613.644 2003.96 620.01C2009.53 626.375 2016.21 631.309 2024.01 634.81C2031.97 638.312 2040.96 640.062 2050.99 640.062C2063.4 640.062 2074.94 637.675 2085.6 632.9C2096.42 627.967 2105.73 620.567 2113.53 610.699L2146.95 646.985C2141.54 654.783 2134.14 662.263 2124.75 669.425C2115.52 676.586 2104.38 682.475 2091.33 687.09C2078.28 691.546 2063.4 693.774 2046.69 693.774Z" fill="#29A6DC"/>
</svg>
